<mxfile host="app.diagrams.net" modified="2023-06-12T11:24:04.633Z" agent="Mozilla/5.0 (Macintosh; Intel Mac OS X 10_15_7) AppleWebKit/537.36 (KHTML, like Gecko) Chrome/114.0.0.0 Safari/537.36" etag="GSJcvP3GWoHOPmq09nS1" version="21.3.8" type="device">
  <diagram id="AllzhJJeG0eL6vwa1mOl" name="Page-1">
    <mxGraphModel dx="569" dy="738" grid="0" gridSize="10" guides="1" tooltips="1" connect="1" arrows="1" fold="1" page="1" pageScale="1" pageWidth="827" pageHeight="1169" math="0" shadow="0">
      <root>
        <mxCell id="0" />
        <mxCell id="1" parent="0" />
        <mxCell id="erCxGVNcBSu2ljuZGB63-1" value="" style="rounded=1;whiteSpace=wrap;html=1;fillColor=#FFFFFF;strokeColor=#666666;fontColor=#333333;dashed=1;fontSize=11;fontFamily=PT Serif;fontSource=https%3A%2F%2Ffonts.googleapis.com%2Fcss%3Ffamily%3DPT%2BSerif;" parent="1" vertex="1">
          <mxGeometry x="241.99999999999983" y="267" width="130" height="271" as="geometry" />
        </mxCell>
        <mxCell id="erCxGVNcBSu2ljuZGB63-2" value="&lt;font style=&quot;font-size: 11px;&quot;&gt;Normalización&lt;/font&gt;" style="rounded=1;whiteSpace=wrap;html=1;fillColor=#FFFFFF;strokeColor=#1A1A1A;flipV=1;fontFamily=PT Serif;fontSource=https%3A%2F%2Ffonts.googleapis.com%2Fcss%3Ffamily%3DPT%2BSerif;fontSize=11;" parent="1" vertex="1">
          <mxGeometry x="275" y="285" width="80" height="27" as="geometry" />
        </mxCell>
        <mxCell id="erCxGVNcBSu2ljuZGB63-19" style="edgeStyle=orthogonalEdgeStyle;rounded=0;orthogonalLoop=1;jettySize=auto;html=1;exitX=0.5;exitY=0;exitDx=0;exitDy=0;entryX=0.5;entryY=1;entryDx=0;entryDy=0;startArrow=none;startFill=0;endArrow=classic;endFill=1;fontSize=11;fontFamily=PT Serif;fontSource=https%3A%2F%2Ffonts.googleapis.com%2Fcss%3Ffamily%3DPT%2BSerif;" parent="1" source="erCxGVNcBSu2ljuZGB63-3" target="erCxGVNcBSu2ljuZGB63-2" edge="1">
          <mxGeometry relative="1" as="geometry" />
        </mxCell>
        <mxCell id="erCxGVNcBSu2ljuZGB63-3" value="&lt;font style=&quot;font-size: 11px;&quot;&gt;Red neuronal retro-alimentada&lt;/font&gt;" style="rounded=1;whiteSpace=wrap;html=1;fillColor=#dae8fc;strokeColor=#1A1A1A;flipV=1;fontFamily=PT Serif;fontSource=https%3A%2F%2Ffonts.googleapis.com%2Fcss%3Ffamily%3DPT%2BSerif;fontSize=11;" parent="1" vertex="1">
          <mxGeometry x="270.99999999999983" y="331" width="85" height="54" as="geometry" />
        </mxCell>
        <mxCell id="erCxGVNcBSu2ljuZGB63-11" style="edgeStyle=orthogonalEdgeStyle;rounded=1;orthogonalLoop=1;jettySize=auto;html=1;exitX=0;exitY=0.5;exitDx=0;exitDy=0;startArrow=classic;startFill=1;endArrow=none;endFill=0;fontSize=11;fontFamily=PT Serif;fontSource=https%3A%2F%2Ffonts.googleapis.com%2Fcss%3Ffamily%3DPT%2BSerif;" parent="1" edge="1" source="6JTqqpPswOs1U7iw3UKr-2">
          <mxGeometry relative="1" as="geometry">
            <mxPoint x="277.1034482758621" y="418.72413793103453" as="sourcePoint" />
            <mxPoint x="313" y="522" as="targetPoint" />
            <Array as="points">
              <mxPoint x="257" y="420" />
              <mxPoint x="257" y="522" />
            </Array>
          </mxGeometry>
        </mxCell>
        <mxCell id="erCxGVNcBSu2ljuZGB63-16" style="edgeStyle=orthogonalEdgeStyle;rounded=0;orthogonalLoop=1;jettySize=auto;html=1;exitX=0.5;exitY=0;exitDx=0;exitDy=0;entryX=0.5;entryY=1;entryDx=0;entryDy=0;startArrow=none;startFill=0;endArrow=classic;endFill=1;fontSize=11;fontFamily=PT Serif;fontSource=https%3A%2F%2Ffonts.googleapis.com%2Fcss%3Ffamily%3DPT%2BSerif;" parent="1" target="erCxGVNcBSu2ljuZGB63-3" edge="1">
          <mxGeometry relative="1" as="geometry">
            <mxPoint x="314.5" y="406" as="sourcePoint" />
          </mxGeometry>
        </mxCell>
        <mxCell id="erCxGVNcBSu2ljuZGB63-15" style="edgeStyle=orthogonalEdgeStyle;rounded=0;orthogonalLoop=1;jettySize=auto;html=1;exitX=0.5;exitY=0;exitDx=0;exitDy=0;entryX=0.5;entryY=1;entryDx=0;entryDy=0;startArrow=none;startFill=0;endArrow=classic;endFill=1;fontSize=11;fontFamily=PT Serif;fontSource=https%3A%2F%2Ffonts.googleapis.com%2Fcss%3Ffamily%3DPT%2BSerif;" parent="1" source="erCxGVNcBSu2ljuZGB63-5" edge="1">
          <mxGeometry relative="1" as="geometry">
            <mxPoint x="314.5" y="434" as="targetPoint" />
          </mxGeometry>
        </mxCell>
        <mxCell id="erCxGVNcBSu2ljuZGB63-5" value="&lt;font style=&quot;font-size: 11px;&quot;&gt;Atención multicabezal&lt;/font&gt;" style="rounded=1;whiteSpace=wrap;html=1;fillColor=#99CCFF;strokeColor=#1A1A1A;flipV=1;fontFamily=PT Serif;fontSource=https%3A%2F%2Ffonts.googleapis.com%2Fcss%3Ffamily%3DPT%2BSerif;gradientColor=none;align=center;fontSize=11;" parent="1" vertex="1">
          <mxGeometry x="271" y="461" width="85" height="46" as="geometry" />
        </mxCell>
        <mxCell id="erCxGVNcBSu2ljuZGB63-8" style="edgeStyle=orthogonalEdgeStyle;rounded=0;orthogonalLoop=1;jettySize=auto;html=1;exitX=0.5;exitY=0;exitDx=0;exitDy=0;entryX=0.5;entryY=1;entryDx=0;entryDy=0;fontSize=11;fontFamily=PT Serif;fontSource=https%3A%2F%2Ffonts.googleapis.com%2Fcss%3Ffamily%3DPT%2BSerif;" parent="1" edge="1">
          <mxGeometry relative="1" as="geometry">
            <mxPoint x="313.5" y="558" as="sourcePoint" />
            <mxPoint x="313.4999999999998" y="506.9999999999999" as="targetPoint" />
          </mxGeometry>
        </mxCell>
        <mxCell id="erCxGVNcBSu2ljuZGB63-7" value="" style="endArrow=classic;html=1;entryX=0.5;entryY=1;entryDx=0;entryDy=0;fontSize=11;fontFamily=PT Serif;fontSource=https%3A%2F%2Ffonts.googleapis.com%2Fcss%3Ffamily%3DPT%2BSerif;" parent="1" edge="1">
          <mxGeometry width="50" height="50" relative="1" as="geometry">
            <mxPoint x="314" y="618" as="sourcePoint" />
            <mxPoint x="313.5" y="584" as="targetPoint" />
          </mxGeometry>
        </mxCell>
        <mxCell id="erCxGVNcBSu2ljuZGB63-32" value="" style="rounded=1;whiteSpace=wrap;html=1;dashed=1;fontSize=11;fontFamily=PT Serif;fontSource=https%3A%2F%2Ffonts.googleapis.com%2Fcss%3Ffamily%3DPT%2BSerif;" parent="1" vertex="1">
          <mxGeometry x="484.5" y="141" width="157" height="400" as="geometry" />
        </mxCell>
        <mxCell id="erCxGVNcBSu2ljuZGB63-48" style="edgeStyle=orthogonalEdgeStyle;rounded=0;orthogonalLoop=1;jettySize=auto;html=1;exitX=0.481;exitY=1.007;exitDx=0;exitDy=0;entryX=0.5;entryY=1;entryDx=0;entryDy=0;startArrow=none;startFill=0;endArrow=classic;endFill=1;exitPerimeter=0;fontSize=11;fontFamily=PT Serif;fontSource=https%3A%2F%2Ffonts.googleapis.com%2Fcss%3Ffamily%3DPT%2BSerif;" parent="1" source="n1pnrjjPw9y0WNeoDxGA-10" target="erCxGVNcBSu2ljuZGB63-46" edge="1">
          <mxGeometry relative="1" as="geometry">
            <mxPoint x="561.5" y="280" as="sourcePoint" />
          </mxGeometry>
        </mxCell>
        <mxCell id="erCxGVNcBSu2ljuZGB63-34" style="edgeStyle=orthogonalEdgeStyle;rounded=0;orthogonalLoop=1;jettySize=auto;html=1;exitX=0.5;exitY=0;exitDx=0;exitDy=0;entryX=0.5;entryY=1;entryDx=0;entryDy=0;startArrow=none;startFill=0;endArrow=classic;endFill=1;fontSize=11;fontFamily=PT Serif;fontSource=https%3A%2F%2Ffonts.googleapis.com%2Fcss%3Ffamily%3DPT%2BSerif;" parent="1" source="erCxGVNcBSu2ljuZGB63-35" edge="1">
          <mxGeometry relative="1" as="geometry">
            <mxPoint x="561.5" y="307" as="targetPoint" />
          </mxGeometry>
        </mxCell>
        <mxCell id="erCxGVNcBSu2ljuZGB63-35" value="&lt;font style=&quot;font-size: 11px;&quot; data-font-src=&quot;https://fonts.googleapis.com/css?family=PT+Serif&quot;&gt;Atención multicabezal&lt;/font&gt;" style="rounded=1;whiteSpace=wrap;html=1;fillColor=#99ccff;strokeColor=#232323;flipV=1;fontSize=11;fontFamily=PT Serif;fontSource=https%3A%2F%2Ffonts.googleapis.com%2Fcss%3Ffamily%3DPT%2BSerif;" parent="1" vertex="1">
          <mxGeometry x="514.5" y="326" width="97" height="47" as="geometry" />
        </mxCell>
        <mxCell id="erCxGVNcBSu2ljuZGB63-39" style="edgeStyle=orthogonalEdgeStyle;rounded=0;orthogonalLoop=1;jettySize=auto;html=1;exitX=0.5;exitY=0;exitDx=0;exitDy=0;entryX=0.5;entryY=1;entryDx=0;entryDy=0;startArrow=none;startFill=0;endArrow=classic;endFill=1;fontSize=11;fontFamily=PT Serif;fontSource=https%3A%2F%2Ffonts.googleapis.com%2Fcss%3Ffamily%3DPT%2BSerif;" parent="1" source="n1pnrjjPw9y0WNeoDxGA-14" target="n1pnrjjPw9y0WNeoDxGA-11" edge="1">
          <mxGeometry relative="1" as="geometry">
            <mxPoint x="561.5" y="456" as="sourcePoint" />
            <mxPoint x="561.9999999999998" y="433" as="targetPoint" />
          </mxGeometry>
        </mxCell>
        <mxCell id="erCxGVNcBSu2ljuZGB63-41" style="edgeStyle=orthogonalEdgeStyle;rounded=0;orthogonalLoop=1;jettySize=auto;html=1;exitX=0.5;exitY=0;exitDx=0;exitDy=0;entryX=0.5;entryY=1;entryDx=0;entryDy=0;fontSize=11;fontFamily=PT Serif;fontSource=https%3A%2F%2Ffonts.googleapis.com%2Fcss%3Ffamily%3DPT%2BSerif;" parent="1" source="erCxGVNcBSu2ljuZGB63-42" edge="1">
          <mxGeometry relative="1" as="geometry">
            <mxPoint x="561.5" y="510" as="targetPoint" />
          </mxGeometry>
        </mxCell>
        <mxCell id="erCxGVNcBSu2ljuZGB63-42" value="" style="shape=orEllipse;perimeter=ellipsePerimeter;whiteSpace=wrap;html=1;backgroundOutline=1;fontSize=11;fontFamily=PT Serif;fontSource=https%3A%2F%2Ffonts.googleapis.com%2Fcss%3Ffamily%3DPT%2BSerif;" parent="1" vertex="1">
          <mxGeometry x="549.5" y="561" width="25" height="25" as="geometry" />
        </mxCell>
        <mxCell id="erCxGVNcBSu2ljuZGB63-43" value="" style="endArrow=classic;html=1;entryX=0.5;entryY=1;entryDx=0;entryDy=0;exitX=0.5;exitY=0;exitDx=0;exitDy=0;fontSize=11;fontFamily=PT Serif;fontSource=https%3A%2F%2Ffonts.googleapis.com%2Fcss%3Ffamily%3DPT%2BSerif;" parent="1" source="n1pnrjjPw9y0WNeoDxGA-16" target="erCxGVNcBSu2ljuZGB63-42" edge="1">
          <mxGeometry width="50" height="50" relative="1" as="geometry">
            <mxPoint x="564" y="613" as="sourcePoint" />
            <mxPoint x="641.5" y="693" as="targetPoint" />
          </mxGeometry>
        </mxCell>
        <mxCell id="erCxGVNcBSu2ljuZGB63-49" style="edgeStyle=orthogonalEdgeStyle;rounded=0;orthogonalLoop=1;jettySize=auto;html=1;exitX=0.5;exitY=0;exitDx=0;exitDy=0;entryX=0.5;entryY=1;entryDx=0;entryDy=0;startArrow=none;startFill=0;endArrow=classic;endFill=1;fontSize=11;fontFamily=PT Serif;fontSource=https%3A%2F%2Ffonts.googleapis.com%2Fcss%3Ffamily%3DPT%2BSerif;" parent="1" source="erCxGVNcBSu2ljuZGB63-46" target="erCxGVNcBSu2ljuZGB63-47" edge="1">
          <mxGeometry relative="1" as="geometry" />
        </mxCell>
        <mxCell id="erCxGVNcBSu2ljuZGB63-46" value="&lt;font data-font-src=&quot;https://fonts.googleapis.com/css?family=PT+Serif&quot; style=&quot;font-size: 11px;&quot;&gt;Red neuronal retro-alimentada&lt;/font&gt;" style="rounded=1;whiteSpace=wrap;html=1;fillColor=#dae8fc;strokeColor=#6c8ebf;flipV=1;fontSize=11;fontFamily=PT Serif;fontSource=https%3A%2F%2Ffonts.googleapis.com%2Fcss%3Ffamily%3DPT%2BSerif;" parent="1" vertex="1">
          <mxGeometry x="517" y="204" width="89" height="54" as="geometry" />
        </mxCell>
        <mxCell id="erCxGVNcBSu2ljuZGB63-47" value="&lt;font data-font-src=&quot;https://fonts.googleapis.com/css?family=PT+Serif&quot; style=&quot;font-size: 11px;&quot;&gt;Normalización&lt;/font&gt;" style="rounded=1;whiteSpace=wrap;html=1;flipV=1;fontSize=11;fontFamily=PT Serif;fontSource=https%3A%2F%2Ffonts.googleapis.com%2Fcss%3Ffamily%3DPT%2BSerif;" parent="1" vertex="1">
          <mxGeometry x="522" y="154" width="79" height="27" as="geometry" />
        </mxCell>
        <mxCell id="erCxGVNcBSu2ljuZGB63-50" style="edgeStyle=orthogonalEdgeStyle;rounded=1;orthogonalLoop=1;jettySize=auto;html=1;exitX=1;exitY=0.5;exitDx=0;exitDy=0;startArrow=classic;startFill=1;endArrow=none;endFill=0;fontSize=11;fontFamily=PT Serif;fontSource=https%3A%2F%2Ffonts.googleapis.com%2Fcss%3Ffamily%3DPT%2BSerif;" parent="1" source="n1pnrjjPw9y0WNeoDxGA-11" edge="1">
          <mxGeometry relative="1" as="geometry">
            <mxPoint x="525.4999999999998" y="419.5" as="sourcePoint" />
            <mxPoint x="561.6046511627907" y="525.6279069767442" as="targetPoint" />
            <Array as="points">
              <mxPoint x="620" y="420" />
              <mxPoint x="620" y="526" />
            </Array>
          </mxGeometry>
        </mxCell>
        <mxCell id="jo1FwagnRR1Xz1HvLgAa-1" style="edgeStyle=orthogonalEdgeStyle;orthogonalLoop=1;jettySize=auto;html=1;entryX=0.75;entryY=1;entryDx=0;entryDy=0;curved=1;fontSize=11;fontFamily=PT Serif;fontSource=https%3A%2F%2Ffonts.googleapis.com%2Fcss%3Ffamily%3DPT%2BSerif;" parent="1" target="erCxGVNcBSu2ljuZGB63-5" edge="1">
          <mxGeometry relative="1" as="geometry">
            <mxPoint x="314" y="522" as="sourcePoint" />
            <mxPoint x="323" y="517" as="targetPoint" />
            <Array as="points">
              <mxPoint x="314" y="522" />
              <mxPoint x="335" y="522" />
            </Array>
          </mxGeometry>
        </mxCell>
        <mxCell id="jo1FwagnRR1Xz1HvLgAa-2" style="edgeStyle=orthogonalEdgeStyle;orthogonalLoop=1;jettySize=auto;html=1;entryX=0.25;entryY=1;entryDx=0;entryDy=0;curved=1;fontSize=11;fontFamily=PT Serif;fontSource=https%3A%2F%2Ffonts.googleapis.com%2Fcss%3Ffamily%3DPT%2BSerif;" parent="1" edge="1">
          <mxGeometry relative="1" as="geometry">
            <mxPoint x="313" y="522" as="sourcePoint" />
            <mxPoint x="292.2499999999999" y="506.9999999999999" as="targetPoint" />
            <Array as="points">
              <mxPoint x="313" y="522" />
              <mxPoint x="292" y="522" />
            </Array>
          </mxGeometry>
        </mxCell>
        <mxCell id="jo1FwagnRR1Xz1HvLgAa-3" style="edgeStyle=orthogonalEdgeStyle;rounded=1;orthogonalLoop=1;jettySize=auto;html=1;exitX=0;exitY=0.5;exitDx=0;exitDy=0;startArrow=classic;startFill=1;endArrow=none;endFill=0;fontSize=11;fontFamily=PT Serif;fontSource=https%3A%2F%2Ffonts.googleapis.com%2Fcss%3Ffamily%3DPT%2BSerif;" parent="1" edge="1" source="erCxGVNcBSu2ljuZGB63-2">
          <mxGeometry relative="1" as="geometry">
            <mxPoint x="278.0734482758621" y="296.03413793103454" as="sourcePoint" />
            <mxPoint x="313.97" y="399.31" as="targetPoint" />
            <Array as="points">
              <mxPoint x="258" y="299" />
              <mxPoint x="258" y="399" />
            </Array>
          </mxGeometry>
        </mxCell>
        <mxCell id="jo1FwagnRR1Xz1HvLgAa-4" value="&lt;i style=&quot;font-size: 11px;&quot;&gt;&lt;font data-font-src=&quot;https://fonts.googleapis.com/css?family=PT+Serif&quot; style=&quot;font-size: 11px;&quot;&gt;n x&lt;/font&gt;&lt;/i&gt;" style="text;html=1;align=center;verticalAlign=middle;resizable=0;points=[];autosize=1;strokeColor=none;fillColor=none;fontSize=11;fontFamily=PT Serif;fontSource=https%3A%2F%2Ffonts.googleapis.com%2Fcss%3Ffamily%3DPT%2BSerif;" parent="1" vertex="1">
          <mxGeometry x="200" y="387" width="33" height="25" as="geometry" />
        </mxCell>
        <mxCell id="jo1FwagnRR1Xz1HvLgAa-6" value="" style="shape=orEllipse;perimeter=ellipsePerimeter;whiteSpace=wrap;html=1;backgroundOutline=1;fontSize=11;fontFamily=PT Serif;fontSource=https%3A%2F%2Ffonts.googleapis.com%2Fcss%3Ffamily%3DPT%2BSerif;" parent="1" vertex="1">
          <mxGeometry x="301" y="558" width="25" height="25" as="geometry" />
        </mxCell>
        <mxCell id="jo1FwagnRR1Xz1HvLgAa-10" value="" style="endArrow=none;html=1;rounded=0;exitX=0;exitY=0.5;exitDx=0;exitDy=0;fontSize=11;fontFamily=PT Serif;fontSource=https%3A%2F%2Ffonts.googleapis.com%2Fcss%3Ffamily%3DPT%2BSerif;" parent="1" source="jo1FwagnRR1Xz1HvLgAa-6" edge="1">
          <mxGeometry width="50" height="50" relative="1" as="geometry">
            <mxPoint x="286" y="571" as="sourcePoint" />
            <mxPoint x="301" y="571" as="targetPoint" />
          </mxGeometry>
        </mxCell>
        <mxCell id="n1pnrjjPw9y0WNeoDxGA-1" value="&lt;font data-font-src=&quot;https://fonts.googleapis.com/css?family=PT+Serif&quot; style=&quot;font-size: 11px;&quot;&gt;Codificación posicional&lt;/font&gt;" style="rounded=1;whiteSpace=wrap;html=1;fontSize=11;fontFamily=PT Serif;fontSource=https%3A%2F%2Ffonts.googleapis.com%2Fcss%3Ffamily%3DPT%2BSerif;" parent="1" vertex="1">
          <mxGeometry x="171" y="547" width="98" height="42" as="geometry" />
        </mxCell>
        <mxCell id="n1pnrjjPw9y0WNeoDxGA-6" value="&lt;font data-font-src=&quot;https://fonts.googleapis.com/css?family=PT+Serif&quot; style=&quot;font-size: 11px;&quot;&gt;Tokenización&lt;/font&gt;" style="rounded=1;whiteSpace=wrap;html=1;fontSize=11;fontFamily=PT Serif;fontSource=https%3A%2F%2Ffonts.googleapis.com%2Fcss%3Ffamily%3DPT%2BSerif;" parent="1" vertex="1">
          <mxGeometry x="271" y="609" width="84" height="32" as="geometry" />
        </mxCell>
        <mxCell id="n1pnrjjPw9y0WNeoDxGA-9" value="" style="endArrow=classic;html=1;rounded=0;entryX=1.023;entryY=0.812;entryDx=0;entryDy=0;entryPerimeter=0;fontSize=11;fontFamily=PT Serif;fontSource=https%3A%2F%2Ffonts.googleapis.com%2Fcss%3Ffamily%3DPT%2BSerif;" parent="1" edge="1">
          <mxGeometry width="50" height="50" relative="1" as="geometry">
            <mxPoint x="269" y="570" as="sourcePoint" />
            <mxPoint x="300.9999999999998" y="570.0520000000001" as="targetPoint" />
          </mxGeometry>
        </mxCell>
        <mxCell id="n1pnrjjPw9y0WNeoDxGA-10" value="&lt;font data-font-src=&quot;https://fonts.googleapis.com/css?family=PT+Serif&quot; style=&quot;font-size: 11px;&quot;&gt;Normalización&lt;/font&gt;" style="rounded=1;whiteSpace=wrap;html=1;flipV=1;fontSize=11;fontFamily=PT Serif;fontSource=https%3A%2F%2Ffonts.googleapis.com%2Fcss%3Ffamily%3DPT%2BSerif;" parent="1" vertex="1">
          <mxGeometry x="523.5" y="281" width="79" height="27" as="geometry" />
        </mxCell>
        <mxCell id="n1pnrjjPw9y0WNeoDxGA-11" value="&lt;font style=&quot;font-size: 11px;&quot; data-font-src=&quot;https://fonts.googleapis.com/css?family=PT+Serif&quot;&gt;Normalización&lt;/font&gt;" style="rounded=1;whiteSpace=wrap;html=1;flipV=1;fontSize=11;fontFamily=PT Serif;fontSource=https%3A%2F%2Ffonts.googleapis.com%2Fcss%3Ffamily%3DPT%2BSerif;" parent="1" vertex="1">
          <mxGeometry x="523.5" y="406" width="79" height="27" as="geometry" />
        </mxCell>
        <mxCell id="n1pnrjjPw9y0WNeoDxGA-14" value="&lt;font style=&quot;font-size: 11px;&quot;&gt;Atención multicabezal con máscara&lt;/font&gt;" style="rounded=1;whiteSpace=wrap;html=1;fillColor=#99CCFF;strokeColor=#1A1A1A;flipV=1;fontFamily=PT Serif;fontSource=https%3A%2F%2Ffonts.googleapis.com%2Fcss%3Ffamily%3DPT%2BSerif;gradientColor=none;fontSize=11;" parent="1" vertex="1">
          <mxGeometry x="520.5" y="456" width="85" height="54" as="geometry" />
        </mxCell>
        <mxCell id="n1pnrjjPw9y0WNeoDxGA-18" value="" style="edgeStyle=orthogonalEdgeStyle;rounded=0;orthogonalLoop=1;jettySize=auto;html=1;fontSize=11;fontFamily=PT Serif;fontSource=https%3A%2F%2Ffonts.googleapis.com%2Fcss%3Ffamily%3DPT%2BSerif;" parent="1" source="n1pnrjjPw9y0WNeoDxGA-15" target="erCxGVNcBSu2ljuZGB63-42" edge="1">
          <mxGeometry relative="1" as="geometry" />
        </mxCell>
        <mxCell id="n1pnrjjPw9y0WNeoDxGA-15" value="&lt;font data-font-src=&quot;https://fonts.googleapis.com/css?family=PT+Serif&quot; style=&quot;font-size: 11px;&quot;&gt;Codificación posicional&lt;/font&gt;" style="rounded=1;whiteSpace=wrap;html=1;fontSize=11;fontFamily=PT Serif;fontSource=https%3A%2F%2Ffonts.googleapis.com%2Fcss%3Ffamily%3DPT%2BSerif;" parent="1" vertex="1">
          <mxGeometry x="605.5" y="552" width="98" height="42" as="geometry" />
        </mxCell>
        <mxCell id="n1pnrjjPw9y0WNeoDxGA-16" value="&lt;font data-font-src=&quot;https://fonts.googleapis.com/css?family=PT+Serif&quot; style=&quot;font-size: 11px;&quot;&gt;Tokenización&lt;/font&gt;" style="rounded=1;whiteSpace=wrap;html=1;fontSize=11;fontFamily=PT Serif;fontSource=https%3A%2F%2Ffonts.googleapis.com%2Fcss%3Ffamily%3DPT%2BSerif;" parent="1" vertex="1">
          <mxGeometry x="520" y="609" width="84" height="32" as="geometry" />
        </mxCell>
        <mxCell id="n1pnrjjPw9y0WNeoDxGA-21" style="edgeStyle=orthogonalEdgeStyle;orthogonalLoop=1;jettySize=auto;html=1;entryX=0.75;entryY=1;entryDx=0;entryDy=0;curved=1;fontSize=11;fontFamily=PT Serif;fontSource=https%3A%2F%2Ffonts.googleapis.com%2Fcss%3Ffamily%3DPT%2BSerif;" parent="1" edge="1">
          <mxGeometry relative="1" as="geometry">
            <mxPoint x="562" y="525" as="sourcePoint" />
            <mxPoint x="583" y="510" as="targetPoint" />
            <Array as="points">
              <mxPoint x="562" y="525" />
              <mxPoint x="583" y="525" />
            </Array>
          </mxGeometry>
        </mxCell>
        <mxCell id="n1pnrjjPw9y0WNeoDxGA-22" style="edgeStyle=orthogonalEdgeStyle;orthogonalLoop=1;jettySize=auto;html=1;entryX=0.25;entryY=1;entryDx=0;entryDy=0;curved=1;fontSize=11;fontFamily=PT Serif;fontSource=https%3A%2F%2Ffonts.googleapis.com%2Fcss%3Ffamily%3DPT%2BSerif;" parent="1" edge="1">
          <mxGeometry relative="1" as="geometry">
            <mxPoint x="561" y="525" as="sourcePoint" />
            <mxPoint x="540.2499999999999" y="509.9999999999999" as="targetPoint" />
            <Array as="points">
              <mxPoint x="561" y="525" />
              <mxPoint x="540" y="525" />
            </Array>
          </mxGeometry>
        </mxCell>
        <mxCell id="n1pnrjjPw9y0WNeoDxGA-25" value="" style="endArrow=classic;html=1;rounded=1;entryX=0.226;entryY=0.003;entryDx=0;entryDy=0;fontSize=11;fontFamily=PT Serif;fontSource=https%3A%2F%2Ffonts.googleapis.com%2Fcss%3Ffamily%3DPT%2BSerif;entryPerimeter=0;" parent="1" target="erCxGVNcBSu2ljuZGB63-35" edge="1">
          <mxGeometry width="50" height="50" relative="1" as="geometry">
            <mxPoint x="313" y="285" as="sourcePoint" />
            <mxPoint x="540" y="396" as="targetPoint" />
            <Array as="points">
              <mxPoint x="313" y="249" />
              <mxPoint x="417" y="249" />
              <mxPoint x="417" y="396" />
              <mxPoint x="536" y="397" />
            </Array>
          </mxGeometry>
        </mxCell>
        <mxCell id="n1pnrjjPw9y0WNeoDxGA-26" value="" style="endArrow=classic;html=1;rounded=1;fontSize=11;fontFamily=PT Serif;fontSource=https%3A%2F%2Ffonts.googleapis.com%2Fcss%3Ffamily%3DPT%2BSerif;entryX=0.5;entryY=1;entryDx=0;entryDy=0;" parent="1" edge="1">
          <mxGeometry width="50" height="50" relative="1" as="geometry">
            <mxPoint x="527" y="397" as="sourcePoint" />
            <mxPoint x="561.9999999999999" y="372.9999999999999" as="targetPoint" />
            <Array as="points">
              <mxPoint x="561" y="397" />
            </Array>
          </mxGeometry>
        </mxCell>
        <mxCell id="n1pnrjjPw9y0WNeoDxGA-27" value="" style="endArrow=classic;html=1;rounded=1;entryX=1;entryY=0.5;entryDx=0;entryDy=0;exitX=0.5;exitY=0;exitDx=0;exitDy=0;fontSize=11;fontFamily=PT Serif;fontSource=https%3A%2F%2Ffonts.googleapis.com%2Fcss%3Ffamily%3DPT%2BSerif;" parent="1" source="n1pnrjjPw9y0WNeoDxGA-11" target="n1pnrjjPw9y0WNeoDxGA-10" edge="1">
          <mxGeometry width="50" height="50" relative="1" as="geometry">
            <mxPoint x="561" y="405" as="sourcePoint" />
            <mxPoint x="628" y="63" as="targetPoint" />
            <Array as="points">
              <mxPoint x="563" y="396" />
              <mxPoint x="633" y="396" />
              <mxPoint x="633" y="295" />
            </Array>
          </mxGeometry>
        </mxCell>
        <mxCell id="n1pnrjjPw9y0WNeoDxGA-28" value="" style="endArrow=classic;html=1;rounded=1;entryX=0.75;entryY=1;entryDx=0;entryDy=0;fontSize=11;fontFamily=PT Serif;fontSource=https%3A%2F%2Ffonts.googleapis.com%2Fcss%3Ffamily%3DPT%2BSerif;" parent="1" edge="1">
          <mxGeometry width="50" height="50" relative="1" as="geometry">
            <mxPoint x="572" y="396" as="sourcePoint" />
            <mxPoint x="590.75" y="373" as="targetPoint" />
            <Array as="points">
              <mxPoint x="591" y="396" />
            </Array>
          </mxGeometry>
        </mxCell>
        <mxCell id="n1pnrjjPw9y0WNeoDxGA-29" value="&lt;i style=&quot;font-size: 11px;&quot;&gt;&lt;font data-font-src=&quot;https://fonts.googleapis.com/css?family=PT+Serif&quot; style=&quot;font-size: 11px;&quot;&gt;x n&lt;/font&gt;&lt;/i&gt;" style="text;html=1;align=center;verticalAlign=middle;resizable=0;points=[];autosize=1;strokeColor=none;fillColor=none;fontSize=11;fontFamily=PT Serif;fontSource=https%3A%2F%2Ffonts.googleapis.com%2Fcss%3Ffamily%3DPT%2BSerif;" parent="1" vertex="1">
          <mxGeometry x="654" y="361" width="33" height="25" as="geometry" />
        </mxCell>
        <mxCell id="n1pnrjjPw9y0WNeoDxGA-30" value="" style="endArrow=classic;html=1;rounded=1;entryX=1;entryY=0.5;entryDx=0;entryDy=0;fontSize=11;fontFamily=PT Serif;fontSource=https%3A%2F%2Ffonts.googleapis.com%2Fcss%3Ffamily%3DPT%2BSerif;" parent="1" target="erCxGVNcBSu2ljuZGB63-47" edge="1">
          <mxGeometry width="50" height="50" relative="1" as="geometry">
            <mxPoint x="562" y="273" as="sourcePoint" />
            <mxPoint x="630" y="5" as="targetPoint" />
            <Array as="points">
              <mxPoint x="633" y="273" />
              <mxPoint x="633" y="168" />
            </Array>
          </mxGeometry>
        </mxCell>
        <mxCell id="n1pnrjjPw9y0WNeoDxGA-31" value="&lt;font data-font-src=&quot;https://fonts.googleapis.com/css?family=PT+Serif&quot; style=&quot;font-size: 11px;&quot;&gt;Capa de neuronas&lt;/font&gt;" style="rounded=1;whiteSpace=wrap;html=1;fillColor=#dae8fc;strokeColor=#6c8ebf;flipV=1;fontSize=11;fontFamily=PT Serif;fontSource=https%3A%2F%2Ffonts.googleapis.com%2Fcss%3Ffamily%3DPT%2BSerif;" parent="1" vertex="1">
          <mxGeometry x="507" y="99" width="109" height="27" as="geometry" />
        </mxCell>
        <mxCell id="n1pnrjjPw9y0WNeoDxGA-33" style="edgeStyle=orthogonalEdgeStyle;rounded=0;orthogonalLoop=1;jettySize=auto;html=1;entryX=0.5;entryY=1;entryDx=0;entryDy=0;startArrow=none;startFill=0;endArrow=classic;endFill=1;fontSize=11;fontFamily=PT Serif;fontSource=https%3A%2F%2Ffonts.googleapis.com%2Fcss%3Ffamily%3DPT%2BSerif;" parent="1" edge="1">
          <mxGeometry relative="1" as="geometry">
            <mxPoint x="561" y="154" as="sourcePoint" />
            <mxPoint x="561" y="126" as="targetPoint" />
          </mxGeometry>
        </mxCell>
        <mxCell id="n1pnrjjPw9y0WNeoDxGA-34" value="&lt;font data-font-src=&quot;https://fonts.googleapis.com/css?family=PT+Serif&quot; style=&quot;font-size: 12px;&quot;&gt;Decodificador&lt;/font&gt;" style="text;html=1;strokeColor=none;fillColor=none;align=center;verticalAlign=middle;whiteSpace=wrap;rounded=0;fontSize=12;fontStyle=1;fontFamily=PT Serif;fontSource=https%3A%2F%2Ffonts.googleapis.com%2Fcss%3Ffamily%3DPT%2BSerif;" parent="1" vertex="1">
          <mxGeometry x="520.5" y="63" width="80" height="30" as="geometry" />
        </mxCell>
        <mxCell id="n1pnrjjPw9y0WNeoDxGA-35" value="&lt;font data-font-src=&quot;https://fonts.googleapis.com/css?family=PT+Serif&quot; style=&quot;font-size: 12px;&quot;&gt;Codificador&lt;/font&gt;" style="text;html=1;strokeColor=none;fillColor=none;align=center;verticalAlign=middle;whiteSpace=wrap;rounded=0;fontSize=12;fontStyle=1;fontFamily=PT Serif;fontSource=https%3A%2F%2Ffonts.googleapis.com%2Fcss%3Ffamily%3DPT%2BSerif;" parent="1" vertex="1">
          <mxGeometry x="283" y="214" width="60" height="30" as="geometry" />
        </mxCell>
        <mxCell id="n1pnrjjPw9y0WNeoDxGA-36" value="" style="ellipse;whiteSpace=wrap;html=1;aspect=fixed;fontSize=11;fontFamily=PT Serif;fontSource=https%3A%2F%2Ffonts.googleapis.com%2Fcss%3Ffamily%3DPT%2BSerif;" parent="1" vertex="1">
          <mxGeometry x="301" y="558" width="25" height="25" as="geometry" />
        </mxCell>
        <mxCell id="n1pnrjjPw9y0WNeoDxGA-37" value="" style="ellipse;whiteSpace=wrap;html=1;aspect=fixed;fontSize=11;fontFamily=PT Serif;fontSource=https%3A%2F%2Ffonts.googleapis.com%2Fcss%3Ffamily%3DPT%2BSerif;" parent="1" vertex="1">
          <mxGeometry x="549.5" y="561" width="25" height="25" as="geometry" />
        </mxCell>
        <mxCell id="n1pnrjjPw9y0WNeoDxGA-38" value="+" style="text;html=1;strokeColor=none;fillColor=none;align=center;verticalAlign=middle;whiteSpace=wrap;rounded=0;fontSize=11;fontFamily=PT Serif;fontSource=https%3A%2F%2Ffonts.googleapis.com%2Fcss%3Ffamily%3DPT%2BSerif;" parent="1" vertex="1">
          <mxGeometry x="289.25" y="554" width="48.5" height="30" as="geometry" />
        </mxCell>
        <mxCell id="n1pnrjjPw9y0WNeoDxGA-39" value="+" style="text;html=1;strokeColor=none;fillColor=none;align=center;verticalAlign=middle;whiteSpace=wrap;rounded=0;fontSize=11;fontFamily=PT Serif;fontSource=https%3A%2F%2Ffonts.googleapis.com%2Fcss%3Ffamily%3DPT%2BSerif;" parent="1" vertex="1">
          <mxGeometry x="531.5" y="557" width="60" height="30" as="geometry" />
        </mxCell>
        <mxCell id="n1pnrjjPw9y0WNeoDxGA-40" value="&lt;font data-font-src=&quot;https://fonts.googleapis.com/css?family=PT+Serif&quot; style=&quot;font-size: 11px;&quot;&gt;Contexto&lt;/font&gt;" style="text;html=1;strokeColor=none;fillColor=none;align=center;verticalAlign=middle;whiteSpace=wrap;rounded=0;fontSize=11;fontFamily=PT Serif;fontSource=https%3A%2F%2Ffonts.googleapis.com%2Fcss%3Ffamily%3DPT%2BSerif;" parent="1" vertex="1">
          <mxGeometry x="283" y="656" width="60" height="30" as="geometry" />
        </mxCell>
        <mxCell id="n1pnrjjPw9y0WNeoDxGA-41" value="&lt;font data-font-src=&quot;https://fonts.googleapis.com/css?family=PT+Serif&quot; style=&quot;font-size: 11px;&quot;&gt;Entrada&lt;/font&gt;" style="text;html=1;strokeColor=none;fillColor=none;align=center;verticalAlign=middle;whiteSpace=wrap;rounded=0;fontSize=11;fontFamily=PT Serif;fontSource=https%3A%2F%2Ffonts.googleapis.com%2Fcss%3Ffamily%3DPT%2BSerif;" parent="1" vertex="1">
          <mxGeometry x="533" y="656" width="60" height="30" as="geometry" />
        </mxCell>
        <mxCell id="n1pnrjjPw9y0WNeoDxGA-42" value="" style="endArrow=classic;html=1;rounded=0;fontSize=11;fontFamily=PT Serif;fontSource=https%3A%2F%2Ffonts.googleapis.com%2Fcss%3Ffamily%3DPT%2BSerif;" parent="1" edge="1">
          <mxGeometry width="50" height="50" relative="1" as="geometry">
            <mxPoint x="314" y="662" as="sourcePoint" />
            <mxPoint x="314" y="641" as="targetPoint" />
          </mxGeometry>
        </mxCell>
        <mxCell id="n1pnrjjPw9y0WNeoDxGA-43" value="" style="endArrow=classic;html=1;rounded=0;fontSize=11;fontFamily=PT Serif;fontSource=https%3A%2F%2Ffonts.googleapis.com%2Fcss%3Ffamily%3DPT%2BSerif;" parent="1" edge="1">
          <mxGeometry width="50" height="50" relative="1" as="geometry">
            <mxPoint x="562" y="662" as="sourcePoint" />
            <mxPoint x="562" y="641" as="targetPoint" />
          </mxGeometry>
        </mxCell>
        <mxCell id="6JTqqpPswOs1U7iw3UKr-2" value="&lt;font style=&quot;font-size: 11px;&quot;&gt;Normalización&lt;/font&gt;" style="rounded=1;whiteSpace=wrap;html=1;fillColor=#FFFFFF;strokeColor=#1A1A1A;flipV=1;fontFamily=PT Serif;fontSource=https%3A%2F%2Ffonts.googleapis.com%2Fcss%3Ffamily%3DPT%2BSerif;fontSize=11;" vertex="1" parent="1">
          <mxGeometry x="276" y="406" width="80" height="27" as="geometry" />
        </mxCell>
      </root>
    </mxGraphModel>
  </diagram>
</mxfile>
